<?xml version="1.0" encoding="UTF-8" standalone="no"?>
<!DOCTYPE svg PUBLIC "-//W3C//DTD SVG 1.1//EN"
 "http://www.w3.org/Graphics/SVG/1.1/DTD/svg11.dtd">
<!-- Generated by graphviz version 2.46.1 (20210213.1702)
 -->
<!-- Title: structs Pages: 1 -->
<svg width="2319pt" height="305pt"
 viewBox="0.00 0.00 2319.00 305.00" xmlns="http://www.w3.org/2000/svg" xmlns:xlink="http://www.w3.org/1999/xlink">
<g id="graph0" class="graph" transform="scale(1 1) rotate(0) translate(4 301)">
<title>structs</title>
<polygon fill="white" stroke="transparent" points="-4,4 -4,-301 2315,-301 2315,4 -4,4"/>
<text text-anchor="middle" x="1155.5" y="-269" font-family="Times New Roman,serif" font-size="30.00">Estructura de Datos</text>
<!-- struct -->
<g id="node1" class="node">
<title>struct</title>
<polygon fill="#ff4040" stroke="black" points="0,-219.5 0,-255.5 2310,-255.5 2310,-219.5 0,-219.5"/>
<text text-anchor="middle" x="35.5" y="-233.8" font-family="Bookman Old Style" font-size="14.00">___0___</text>
<polyline fill="none" stroke="black" points="71,-219.5 71,-255.5 "/>
<text text-anchor="middle" x="106.5" y="-233.8" font-family="Bookman Old Style" font-size="14.00">___1___</text>
<polyline fill="none" stroke="black" points="142,-219.5 142,-255.5 "/>
<text text-anchor="middle" x="177.5" y="-233.8" font-family="Bookman Old Style" font-size="14.00">___2___</text>
<polyline fill="none" stroke="black" points="213,-219.5 213,-255.5 "/>
<text text-anchor="middle" x="248.5" y="-233.8" font-family="Bookman Old Style" font-size="14.00">___3___</text>
<polyline fill="none" stroke="black" points="284,-219.5 284,-255.5 "/>
<text text-anchor="middle" x="319.5" y="-233.8" font-family="Bookman Old Style" font-size="14.00">___4___</text>
<polyline fill="none" stroke="black" points="355,-219.5 355,-255.5 "/>
<text text-anchor="middle" x="390.5" y="-233.8" font-family="Bookman Old Style" font-size="14.00">___5___</text>
<polyline fill="none" stroke="black" points="426,-219.5 426,-255.5 "/>
<text text-anchor="middle" x="461.5" y="-233.8" font-family="Bookman Old Style" font-size="14.00">___6___</text>
<polyline fill="none" stroke="black" points="497,-219.5 497,-255.5 "/>
<text text-anchor="middle" x="532.5" y="-233.8" font-family="Bookman Old Style" font-size="14.00">___7___</text>
<polyline fill="none" stroke="black" points="568,-219.5 568,-255.5 "/>
<text text-anchor="middle" x="603.5" y="-233.8" font-family="Bookman Old Style" font-size="14.00">___8___</text>
<polyline fill="none" stroke="black" points="639,-219.5 639,-255.5 "/>
<text text-anchor="middle" x="674.5" y="-233.8" font-family="Bookman Old Style" font-size="14.00">___9___</text>
<polyline fill="none" stroke="black" points="710,-219.5 710,-255.5 "/>
<text text-anchor="middle" x="750" y="-233.8" font-family="Bookman Old Style" font-size="14.00">___10___</text>
<polyline fill="none" stroke="black" points="790,-219.5 790,-255.5 "/>
<text text-anchor="middle" x="830" y="-233.8" font-family="Bookman Old Style" font-size="14.00">___11___</text>
<polyline fill="none" stroke="black" points="870,-219.5 870,-255.5 "/>
<text text-anchor="middle" x="910" y="-233.8" font-family="Bookman Old Style" font-size="14.00">___12___</text>
<polyline fill="none" stroke="black" points="950,-219.5 950,-255.5 "/>
<text text-anchor="middle" x="990" y="-233.8" font-family="Bookman Old Style" font-size="14.00">___13___</text>
<polyline fill="none" stroke="black" points="1030,-219.5 1030,-255.5 "/>
<text text-anchor="middle" x="1070" y="-233.8" font-family="Bookman Old Style" font-size="14.00">___14___</text>
<polyline fill="none" stroke="black" points="1110,-219.5 1110,-255.5 "/>
<text text-anchor="middle" x="1150" y="-233.8" font-family="Bookman Old Style" font-size="14.00">___15___</text>
<polyline fill="none" stroke="black" points="1190,-219.5 1190,-255.5 "/>
<text text-anchor="middle" x="1230" y="-233.8" font-family="Bookman Old Style" font-size="14.00">___16___</text>
<polyline fill="none" stroke="black" points="1270,-219.5 1270,-255.5 "/>
<text text-anchor="middle" x="1310" y="-233.8" font-family="Bookman Old Style" font-size="14.00">___17___</text>
<polyline fill="none" stroke="black" points="1350,-219.5 1350,-255.5 "/>
<text text-anchor="middle" x="1390" y="-233.8" font-family="Bookman Old Style" font-size="14.00">___18___</text>
<polyline fill="none" stroke="black" points="1430,-219.5 1430,-255.5 "/>
<text text-anchor="middle" x="1470" y="-233.8" font-family="Bookman Old Style" font-size="14.00">___19___</text>
<polyline fill="none" stroke="black" points="1510,-219.5 1510,-255.5 "/>
<text text-anchor="middle" x="1550" y="-233.8" font-family="Bookman Old Style" font-size="14.00">___20___</text>
<polyline fill="none" stroke="black" points="1590,-219.5 1590,-255.5 "/>
<text text-anchor="middle" x="1630" y="-233.8" font-family="Bookman Old Style" font-size="14.00">___21___</text>
<polyline fill="none" stroke="black" points="1670,-219.5 1670,-255.5 "/>
<text text-anchor="middle" x="1710" y="-233.8" font-family="Bookman Old Style" font-size="14.00">___22___</text>
<polyline fill="none" stroke="black" points="1750,-219.5 1750,-255.5 "/>
<text text-anchor="middle" x="1790" y="-233.8" font-family="Bookman Old Style" font-size="14.00">___23___</text>
<polyline fill="none" stroke="black" points="1830,-219.5 1830,-255.5 "/>
<text text-anchor="middle" x="1870" y="-233.8" font-family="Bookman Old Style" font-size="14.00">___24___</text>
<polyline fill="none" stroke="black" points="1910,-219.5 1910,-255.5 "/>
<text text-anchor="middle" x="1950" y="-233.8" font-family="Bookman Old Style" font-size="14.00">___25___</text>
<polyline fill="none" stroke="black" points="1990,-219.5 1990,-255.5 "/>
<text text-anchor="middle" x="2030" y="-233.8" font-family="Bookman Old Style" font-size="14.00">___26___</text>
<polyline fill="none" stroke="black" points="2070,-219.5 2070,-255.5 "/>
<text text-anchor="middle" x="2110" y="-233.8" font-family="Bookman Old Style" font-size="14.00">___27___</text>
<polyline fill="none" stroke="black" points="2150,-219.5 2150,-255.5 "/>
<text text-anchor="middle" x="2190" y="-233.8" font-family="Bookman Old Style" font-size="14.00">___28___</text>
<polyline fill="none" stroke="black" points="2230,-219.5 2230,-255.5 "/>
<text text-anchor="middle" x="2270" y="-233.8" font-family="Bookman Old Style" font-size="14.00">___29___</text>
</g>
<!-- a18Node0 -->
<g id="node2" class="node">
<title>a18Node0</title>
<polygon fill="lightpink" stroke="black" points="1354.5,-146.5 1354.5,-182.5 1425.5,-182.5 1425.5,-146.5 1354.5,-146.5"/>
<text text-anchor="middle" x="1390" y="-160.8" font-family="Bookman Old Style" font-size="14.00">Amador</text>
</g>
<!-- struct&#45;&gt;a18Node0 -->
<g id="edge1" class="edge">
<title>struct:f18&#45;&gt;a18Node0</title>
<path fill="none" stroke="black" d="M1390,-208.85C1390,-203.57 1390,-198.25 1390,-193.23"/>
<polygon fill="black" stroke="black" points="1386.5,-209 1390,-219 1393.5,-209 1386.5,-209"/>
<polygon fill="black" stroke="black" points="1393.5,-192.85 1390,-182.85 1386.5,-192.85 1393.5,-192.85"/>
</g>
<!-- a24Node0 -->
<g id="node3" class="node">
<title>a24Node0</title>
<polygon fill="lightpink" stroke="black" points="1837.5,-146.5 1837.5,-182.5 1902.5,-182.5 1902.5,-146.5 1837.5,-146.5"/>
<text text-anchor="middle" x="1870" y="-160.8" font-family="Bookman Old Style" font-size="14.00">Aurora</text>
</g>
<!-- struct&#45;&gt;a24Node0 -->
<g id="edge2" class="edge">
<title>struct:f24&#45;&gt;a24Node0</title>
<path fill="none" stroke="black" d="M1870,-208.85C1870,-203.57 1870,-198.25 1870,-193.23"/>
<polygon fill="black" stroke="black" points="1866.5,-209 1870,-219 1873.5,-209 1866.5,-209"/>
<polygon fill="black" stroke="black" points="1873.5,-192.85 1870,-182.85 1866.5,-192.85 1873.5,-192.85"/>
</g>
<!-- a26Node0 -->
<g id="node6" class="node">
<title>a26Node0</title>
<polygon fill="lightpink" stroke="black" points="1975.5,-146.5 1975.5,-182.5 2084.5,-182.5 2084.5,-146.5 1975.5,-146.5"/>
<text text-anchor="middle" x="2030" y="-160.8" font-family="Bookman Old Style" font-size="14.00">A comer todo</text>
</g>
<!-- struct&#45;&gt;a26Node0 -->
<g id="edge5" class="edge">
<title>struct:f26&#45;&gt;a26Node0</title>
<path fill="none" stroke="black" d="M2030,-208.85C2030,-203.57 2030,-198.25 2030,-193.23"/>
<polygon fill="black" stroke="black" points="2026.5,-209 2030,-219 2033.5,-209 2026.5,-209"/>
<polygon fill="black" stroke="black" points="2033.5,-192.85 2030,-182.85 2026.5,-192.85 2033.5,-192.85"/>
</g>
<!-- a29Node0 -->
<g id="node7" class="node">
<title>a29Node0</title>
<polygon fill="lightpink" stroke="black" points="2229,-146.5 2229,-182.5 2311,-182.5 2311,-146.5 2229,-146.5"/>
<text text-anchor="middle" x="2270" y="-160.8" font-family="Bookman Old Style" font-size="14.00">Bayoneta</text>
</g>
<!-- struct&#45;&gt;a29Node0 -->
<g id="edge6" class="edge">
<title>struct:f29&#45;&gt;a29Node0</title>
<path fill="none" stroke="black" d="M2270,-208.85C2270,-203.57 2270,-198.25 2270,-193.23"/>
<polygon fill="black" stroke="black" points="2266.5,-209 2270,-219 2273.5,-209 2266.5,-209"/>
<polygon fill="black" stroke="black" points="2273.5,-192.85 2270,-182.85 2266.5,-192.85 2273.5,-192.85"/>
</g>
<!-- a24Node1 -->
<g id="node4" class="node">
<title>a24Node1</title>
<polygon fill="lightpink" stroke="black" points="1830.5,-73.5 1830.5,-109.5 1909.5,-109.5 1909.5,-73.5 1830.5,-73.5"/>
<text text-anchor="middle" x="1870" y="-87.8" font-family="Bookman Old Style" font-size="14.00">Armados</text>
</g>
<!-- a24Node0&#45;&gt;a24Node1 -->
<g id="edge3" class="edge">
<title>a24Node0&#45;&gt;a24Node1</title>
<path fill="none" stroke="black" d="M1870,-136.25C1870,-130.78 1870,-125.02 1870,-119.55"/>
<polygon fill="black" stroke="black" points="1866.5,-136.31 1870,-146.31 1873.5,-136.31 1866.5,-136.31"/>
<polygon fill="black" stroke="black" points="1873.5,-119.53 1870,-109.53 1866.5,-119.53 1873.5,-119.53"/>
</g>
<!-- a24Node2 -->
<g id="node5" class="node">
<title>a24Node2</title>
<polygon fill="lightpink" stroke="black" points="1835.5,-0.5 1835.5,-36.5 1904.5,-36.5 1904.5,-0.5 1835.5,-0.5"/>
<text text-anchor="middle" x="1870" y="-14.8" font-family="Bookman Old Style" font-size="14.00">Arboles</text>
</g>
<!-- a24Node1&#45;&gt;a24Node2 -->
<g id="edge4" class="edge">
<title>a24Node1&#45;&gt;a24Node2</title>
<path fill="none" stroke="black" d="M1870,-63.25C1870,-57.78 1870,-52.02 1870,-46.55"/>
<polygon fill="black" stroke="black" points="1866.5,-63.31 1870,-73.31 1873.5,-63.31 1866.5,-63.31"/>
<polygon fill="black" stroke="black" points="1873.5,-46.53 1870,-36.53 1866.5,-46.53 1873.5,-46.53"/>
</g>
</g>
</svg>
